<svg xmlns="http://www.w3.org/2000/svg" enable-background="new 0 0 1024 1024" viewBox="0 0 1024 1024" id="biometricauthentication">
  <path d="M530.5,831c0,8.28-6.72,15-15,15h-160c-8.28,0-15-6.72-15-15s6.72-15,15-15h160C523.78,816,530.5,822.72,530.5,831z
	 M350.54,636.2c2.27,1.22,4.71,1.81,7.12,1.81c5.33,0,10.5-2.85,13.21-7.87c14.09-26.08,22.42-55.78,24.75-88.29
	c0.7-9.87-0.34-21.71-1.45-34.23c-0.69-7.77-1.4-15.81-1.75-23.84c-0.36-8.28-7.37-14.7-15.64-14.33
	c-8.28,0.36-14.69,7.36-14.33,15.64c0.38,8.71,1.12,17.09,1.84,25.19c1,11.3,1.95,21.97,1.41,29.45
	c-2.02,28.22-9.16,53.85-21.22,76.16C340.53,623.16,343.25,632.26,350.54,636.2z M421.84,636.93c1.82,0.73,3.7,1.07,5.55,1.07
	c5.96,0,11.6-3.58,13.94-9.45c22.31-55.98,27.06-118.69,13.36-176.57c-1.91-8.06-9.99-13.05-18.05-11.14
	c-8.06,1.91-13.05,9.99-11.14,18.05c12.29,51.93,8.01,108.24-12.04,158.55C410.39,625.14,414.14,633.87,421.84,636.93z
	 M315.9,542.38c-8.19-1.19-15.81,4.49-17,12.69c-3.54,24.33-9.95,43.43-20.18,60.09c-4.33,7.06-2.12,16.3,4.94,20.63
	c2.45,1.5,5.16,2.22,7.83,2.22c5.04,0,9.97-2.54,12.8-7.16c12.43-20.26,20.15-42.97,24.3-71.47
	C329.77,551.18,324.09,543.57,315.9,542.38z M674.5,781.35v65.59c0,34.77-28.29,63.06-63.06,63.06H259.56
	c-34.77,0-63.06-28.29-63.06-63.06V175.06c0-34.77,28.29-63.06,63.06-63.06h79.94h192h79.94c34.77,0,63.06,28.29,63.06,63.06v257.59
	c89.5,7.63,160,82.91,160,174.35C834.5,698.44,764,773.72,674.5,781.35z M354.5,142v18.16c0,5.42,4.41,9.84,9.84,9.84h142.32
	c5.42,0,9.84-4.41,9.84-9.84V142H354.5z M644.5,846.94v-65.59c-89.5-7.63-160-82.91-160-174.35c0-28.54,6.87-55.51,19.04-79.34
	c-2.38-2.63-3.85-6.1-3.89-9.92c-0.39-46.7-13.61-83.3-35.36-97.89c-12.24-8.22-27.07-8.94-44.06-2.14
	c-11.18,4.47-18.44,11.64-22.85,22.55c-3.11,7.68-11.85,11.39-19.53,8.28c-7.68-3.11-11.39-11.85-8.28-19.53
	c7.47-18.48,20.77-31.65,39.53-39.15c33.31-13.32,57.49-4.59,71.91,5.08c25.67,17.22,42.3,51.69,47.17,96.54
	c9.51-10.8,20.33-20.41,32.2-28.6c-5.39-31.14-14.95-53.54-21.9-63.69c-26.27-38.34-76.69-57.57-119.89-45.72
	c-93.17,25.55-87.84,104.79-85.28,142.88c0.41,6.04,0.7,10.4,0.52,13.98c-0.4,8.02-7.03,14.25-14.97,14.25
	c-0.25,0-0.51-0.01-0.77-0.02c-8.27-0.42-14.64-7.46-14.23-15.73c0.09-1.82-0.19-6.02-0.49-10.46c-1.27-18.9-3.64-54.08,8.68-88.37
	c15.44-42.99,48.61-71.74,98.59-85.45c55.15-15.12,119.31,9.14,152.58,57.7c8.17,11.93,18.24,34.54,24.71,65.1
	c17.52-7.89,36.57-12.96,56.57-14.67V175.06c0-18.23-14.83-33.06-33.06-33.06H546.5v18.16c0,21.97-17.87,39.84-39.84,39.84H364.34
	c-21.97,0-39.84-17.87-39.84-39.84V142h-64.94c-18.23,0-33.06,14.83-33.06,33.06v671.89c0,18.23,14.83,33.06,33.06,33.06h351.89
	C629.67,880,644.5,865.17,644.5,846.94z M804.5,607c0-79.95-65.05-145-145-145s-145,65.05-145,145s65.05,145,145,145
	S804.5,686.95,804.5,607z M728.89,548.39l-85.39,85.39l-37.39-37.39c-5.86-5.86-15.36-5.86-21.21,0c-5.86,5.86-5.86,15.36,0,21.21
	l48,48c2.93,2.93,6.77,4.39,10.61,4.39s7.68-1.46,10.61-4.39l96-96c5.86-5.86,5.86-15.36,0-21.21
	C744.25,542.54,734.75,542.54,728.89,548.39z" fill="#ffffff" class="color000000 svgShape"></path>
</svg>