<?xml version="1.0" encoding="UTF-8" standalone="no"?>
<svg
   version="1.1"
   width="1410.8699"
   height="178.17421"
   viewBox="0 0 1410.8699 178.17421"
   id="svg47"
   sodipodi:docname="abdelrahman-high-resolution-logo-transparent.svg"
   inkscape:export-filename="abdelrahman-high-resolution-logo-transparent2.svg"
   inkscape:export-xdpi="96"
   inkscape:export-ydpi="96"
   xmlns:inkscape="http://www.inkscape.org/namespaces/inkscape"
   xmlns:sodipodi="http://sodipodi.sourceforge.net/DTD/sodipodi-0.dtd"
   xmlns="http://www.w3.org/2000/svg"
   xmlns:svg="http://www.w3.org/2000/svg">
  <defs
     id="defs51" />
  <sodipodi:namedview
     id="namedview49"
     pagecolor="#ffffff"
     bordercolor="#000000"
     borderopacity="0.25"
     inkscape:showpageshadow="2"
     inkscape:pageopacity="0.0"
     inkscape:pagecheckerboard="0"
     inkscape:deskcolor="#d1d1d1"
     showgrid="false"
     inkscape:zoom="0.605"
     inkscape:cx="891.73554"
     inkscape:cy="123.96694"
     inkscape:window-width="1920"
     inkscape:window-height="1009"
     inkscape:window-x="-8"
     inkscape:window-y="-8"
     inkscape:window-maximized="1"
     inkscape:current-layer="svg47" />
  <g
     transform="translate(-585.77322,-34.412899)"
     id="g45">
    <svg
       viewBox="0 0 396 49"
       data-background-color="#ffffff"
       preserveAspectRatio="xMidYMid"
       height="247"
       width="2000"
       version="1.1"
       id="svg43">
      <g
         id="tight-bounds"
         transform="translate(0.24,0.07570706)">
        <svg
           viewBox="0 0 395.52 48.848586"
           height="48.848587"
           width="395.51999"
           version="1.1"
           id="svg38">
          <g
             id="g34">
            <svg
               viewBox="0 0 558.74036 69.007071"
               height="48.848587"
               width="395.51999"
               version="1.1"
               id="svg32">
              <g
                 transform="translate(163.22036,9.5371567)"
                 id="g15">
                <svg
                   viewBox="0 0 395.52 49.932757"
                   height="49.932758"
                   width="395.51999"
                   version="1.1"
                   id="svg13">
                  <g
                     id="textblocktransform">
                    <svg
                       viewBox="0 0 395.52 49.932757"
                       height="49.932758"
                       width="395.51999"
                       id="textblock"
                       version="1.1">
                      <g
                         id="g9">
                        <svg
                           viewBox="0 0 395.52 49.932757"
                           height="49.932758"
                           width="395.51999"
                           version="1.1"
                           id="svg7">
                          <g
                             id="g5">
                            <svg
                               width="395.51999"
                               viewBox="0.83 -35.6 286.57 36.19"
                               height="49.932758"
                               data-palette-color="#000000"
                               version="1.1"
                               id="svg3">
                              <path
                                 d="M 5.86,0 H 1.95 Q 1.61,0 1.22,-0.11 0.83,-0.22 0.83,-0.68 v 0 q 0,-0.2 0.07,-0.39 0.08,-0.2 0.15,-0.37 v 0 q 2.15,-4.64 4.26,-9.28 2.11,-4.64 4.16,-9.32 v 0 q 1.69,-3.86 3.35,-7.73 1.66,-3.87 3.42,-7.68 v 0 q 0.07,-0.15 0.24,-0.15 v 0 q 0.17,0 0.24,0.15 v 0 q 1.76,3.81 3.42,7.68 1.66,3.87 3.35,7.73 v 0 q 2.05,4.68 4.16,9.32 2.11,4.64 4.26,9.28 v 0 q 0.07,0.17 0.15,0.37 0.07,0.19 0.07,0.39 v 0 q 0,0.46 -0.39,0.57 Q 31.35,0 31.01,0 v 0 h -4.94 q -0.61,0 -0.92,-0.61 v 0 Q 24.95,-1 24.78,-1.44 24.61,-1.88 24.44,-2.27 v 0 Q 23.9,-3.49 23.4,-4.76 22.9,-6.03 22.34,-7.25 v 0 q -0.07,-0.2 -0.27,-0.2 v 0 H 9.99 q -0.2,0 -0.27,0.2 v 0 q -0.59,1.22 -1.11,2.49 -0.53,1.27 -1.09,2.51 v 0 q -0.17,0.39 -0.35,0.83 -0.19,0.44 -0.41,0.83 v 0 Q 6.45,0 5.86,0 Z m 6.15,-12.55 v 0 h 8.13 q -0.97,-2.44 -1.98,-4.87 -1,-2.43 -2,-4.87 v 0 q -1.02,2.44 -2.06,4.87 -1.04,2.43 -2.09,4.87 z m 47.24,1.54 v 0 q 0,3.15 -1.32,5.76 -1.32,2.61 -3.73,4.16 -2.42,1.55 -5.72,1.55 v 0 q -3.98,0 -6.81,-2.51 v 0 Q 41.6,-2.1 41.51,-2.19 41.43,-2.27 41.31,-2.27 v 0 q -0.13,0 -0.15,0.18 -0.02,0.19 -0.02,0.26 v 0 q 0,0.58 -0.05,1.21 Q 41.04,0 40.18,0 v 0 h -3.9 q -1,0 -1,-1.03 v 0 q 0,-1.34 0.03,-2.67 0.04,-1.33 0.06,-2.67 v 0 q 0.05,-2.81 0.08,-5.62 0.02,-2.8 0.02,-5.61 v 0 q 0,-2.81 -0.02,-5.62 -0.03,-2.81 -0.08,-5.61 v 0 q -0.02,-1.35 -0.06,-2.68 -0.03,-1.33 -0.03,-2.67 v 0 q 0,-1.03 1,-1.03 v 0 h 3.78 q 0.59,0 0.77,0.25 0.18,0.24 0.23,0.76 v 0 q 0.1,0.78 0.06,2.12 -0.03,1.34 -0.01,2.22 v 0 q 0.03,2.3 0.04,4.57 0.01,2.27 0.01,4.56 v 0 q 0,0.1 0.02,0.25 0.03,0.14 0.17,0.14 v 0 q 0.13,0 0.32,-0.14 v 0 q 3.18,-2.25 7.06,-2.25 v 0 q 3.46,0 5.8,1.58 2.33,1.57 3.52,4.23 1.2,2.66 1.2,5.91 z m -11.91,6.08 v 0 q 1.8,0 3.17,-0.9 1.37,-0.91 2.14,-2.4 0.77,-1.49 0.77,-3.22 v 0 q 0,-1.76 -0.76,-3.26 -0.76,-1.5 -2.11,-2.43 -1.36,-0.93 -3.21,-0.93 v 0 q -1.66,0 -3.19,0.72 -1.53,0.72 -2.4,2.19 v 0 q -0.1,0.17 -0.3,0.56 -0.19,0.39 -0.24,0.59 v 0 q -0.05,0.29 -0.03,0.68 0.03,0.39 0.03,0.71 v 0 q 0,0.93 0,1.87 0,0.94 -0.03,1.86 v 0 q 0.79,2.01 2.42,2.98 1.64,0.98 3.74,0.98 z m 24.95,5.39 v 0 q -3.33,0 -5.6,-1.56 -2.27,-1.56 -3.44,-4.17 -1.17,-2.62 -1.17,-5.72 v 0 q 0,-3.37 1.26,-6.01 1.25,-2.65 3.67,-4.19 2.42,-1.54 5.93,-1.54 v 0 q 3.89,0 6.77,2.25 v 0 q 0.22,0.17 0.34,0.17 v 0 q 0.15,0 0.17,-0.17 0.02,-0.17 0.02,-0.25 v 0 q 0,-2.29 0.02,-4.56 0.01,-2.27 0.03,-4.57 v 0 q 0.03,-1.07 0,-2.18 -0.02,-1.11 0.05,-2.16 v 0 q 0.07,-1.01 1,-1.01 v 0 h 3.81 q 1,0 1,1.03 v 0 q 0,1.34 -0.03,2.67 -0.04,1.33 -0.07,2.68 v 0 q -0.07,5.59 -0.07,11.23 v 0 q 0,5.61 0.07,11.23 v 0 q 0.03,1.34 0.07,2.67 0.03,1.33 0.03,2.67 v 0 q 0,1.03 -1,1.03 V 0 H 81.29 Q 80.39,0 80.35,-0.68 80.32,-1.37 80.29,-2 v 0 q 0,-0.08 -0.02,-0.23 -0.03,-0.16 -0.15,-0.16 v 0 q -0.12,0 -0.34,0.17 v 0 q -1.64,1.29 -3.52,1.99 -1.88,0.69 -3.97,0.69 z m 1.78,-5.39 v 0 q 2.15,0 3.78,-0.98 1.64,-0.97 2.39,-3.05 v 0 q -0.02,-0.85 -0.02,-1.68 0,-0.83 0,-1.66 v 0 q 0,-0.4 0.02,-0.86 0.03,-0.46 -0.02,-0.83 v 0 q -0.02,-0.27 -0.27,-0.71 -0.24,-0.44 -0.37,-0.66 v 0 q -0.9,-1.36 -2.4,-2.04 -1.5,-0.67 -3.11,-0.67 v 0 q -1.86,0 -3.24,0.93 -1.38,0.93 -2.12,2.44 -0.75,1.52 -0.75,3.3 v 0 q 0,1.68 0.8,3.16 0.79,1.48 2.18,2.39 1.39,0.92 3.13,0.92 z m 27.61,5.52 v 0 q -3.57,0 -6.22,-1.42 -2.65,-1.42 -4.11,-4.03 -1.46,-2.61 -1.46,-6.2 v 0 q 0,-3.34 1.39,-6.01 1.39,-2.66 3.93,-4.21 2.54,-1.55 5.95,-1.55 v 0 q 4.23,0 6.63,2.37 2.41,2.37 3.26,6.3 v 0 q 0.03,0.07 0.03,0.24 v 0 q 0,0.37 -0.19,0.55 -0.18,0.19 -0.47,0.31 v 0 q -0.83,0.39 -1.76,0.68 -0.93,0.3 -1.81,0.64 v 0 q -2.56,0.95 -5.15,1.86 -2.59,0.92 -5.13,1.95 v 0 q -0.19,0.09 -0.19,0.24 v 0 q 0,0.07 0.05,0.17 v 0 q 0.97,1.76 2.68,2.61 1.71,0.86 3.67,0.86 v 0 q 1.53,0 2.86,-0.49 1.33,-0.49 2.63,-1.22 v 0 q 0.17,-0.1 0.34,-0.17 0.17,-0.08 0.34,-0.08 v 0 q 0.34,0 0.53,0.21 0.18,0.21 0.3,0.48 v 0 q 0.1,0.17 0.38,0.77 0.28,0.59 0.54,1.19 0.25,0.6 0.25,0.77 v 0 q 0,0.27 -0.14,0.44 -0.15,0.17 -0.34,0.32 v 0 q -1.74,1.2 -4.22,1.81 -2.47,0.61 -4.57,0.61 z M 95.55,-11.3 v 0 q 2.46,-0.86 4.93,-1.71 2.47,-0.86 4.91,-1.71 v 0 q -0.61,-1.34 -1.7,-2.35 -1.09,-1 -2.67,-1 v 0 q -1.86,0 -3.08,1 -1.22,1.01 -1.8,2.56 -0.59,1.55 -0.59,3.21 z m 19.6,-22.9 v 0 q 0,-1.01 1,-1.01 v 0 h 3.86 q 1,0 1,1.01 v 0 q 0,4.15 -0.02,8.3 -0.03,4.15 -0.03,8.3 v 0 q 0,4.15 0.03,8.3 0.02,4.15 0.02,8.3 v 0 q 0,1 -1,1 v 0 h -3.86 q -1,0 -1,-1 v 0 q 0,-4.15 0.03,-8.3 0.02,-4.15 0.02,-8.3 v 0 q 0,-4.15 -0.02,-8.3 -0.03,-4.15 -0.03,-8.3 z m 11.82,12.06 h 3.27 q 0.92,0 1,0.9 v 0 l 0.24,2.78 q 0,0.03 0.05,0.36 0.05,0.33 0.17,0.33 v 0 q 0.12,0 0.26,-0.27 0.13,-0.27 0.16,-0.32 v 0 q 1,-1.88 2.44,-2.95 1.44,-1.08 3.64,-1.08 v 0 q 0.51,0 1.3,0.09 0.8,0.08 0.8,0.82 v 0 q 0,0.36 -0.15,1.14 -0.15,0.78 -0.33,1.58 -0.18,0.79 -0.28,1.21 v 0 q -0.1,0.41 -0.31,0.64 -0.2,0.24 -0.69,0.24 v 0 q -0.25,0 -0.48,-0.04 -0.23,-0.04 -0.5,-0.04 v 0 q -1.93,0 -3.25,1.21 -1.31,1.21 -1.97,2.97 -0.66,1.75 -0.66,3.46 v 0 8.11 q 0,1 -1,1 v 0 h -3.79 q -1,0 -1,-1.03 v 0 q 0,-3.78 0.04,-7.55 0.03,-3.77 0.03,-7.53 v 0 -5.03 q 0,-1 1.01,-1 z m 24.31,22.6 v 0 q -3.17,0 -5.32,-1.51 -2.15,-1.51 -3.24,-4.02 -1.08,-2.5 -1.08,-5.43 v 0 -0.39 q 0.04,-3.07 1.28,-5.78 1.23,-2.71 3.57,-4.39 2.35,-1.67 5.67,-1.67 v 0 q 2.05,0 3.82,0.77 1.77,0.77 3.31,2.09 v 0 q 0.17,0.17 0.29,0.17 v 0 q 0.29,0 0.28,-0.61 -0.01,-0.61 0.17,-1.22 0.18,-0.61 0.97,-0.61 v 0 h 3.44 q 1,0 1,1 v 0 q 0,1.05 -0.01,2.1 -0.02,1.05 -0.02,2.1 v 0 q 0,2.68 0.04,5.39 0.04,2.71 0.06,5.4 v 0 q 0.03,1.27 0.06,2.55 0.04,1.28 0.04,2.57 v 0 q 0,1.03 -1,1.03 v 0 h -3.83 q -0.66,0 -0.86,-0.43 -0.19,-0.42 -0.17,-1.01 0.03,-0.59 0,-1.05 v 0 q 0,-0.07 -0.02,-0.24 -0.03,-0.18 -0.15,-0.18 v 0 q -0.1,0 -0.18,0.08 -0.09,0.07 -0.16,0.12 v 0 q -1.71,1.44 -3.69,2.31 -1.98,0.86 -4.27,0.86 z m 2.49,-5.2 v 0 q 1.73,0 3.21,-0.72 1.48,-0.72 2.31,-2.28 v 0 q 0.05,-0.1 0.23,-0.5 0.18,-0.4 0.18,-0.5 v 0 q 0,-0.85 -0.01,-1.71 -0.01,-0.85 -0.01,-1.68 v 0 q 0,-0.39 0.02,-0.87 0.03,-0.48 -0.02,-0.84 v 0 q -0.03,-0.17 -0.19,-0.52 -0.15,-0.34 -0.23,-0.48 v 0 q -0.85,-1.54 -2.41,-2.3 -1.57,-0.76 -3.28,-0.76 v 0 q -1.8,0 -3.17,0.91 -1.37,0.9 -2.14,2.38 -0.77,1.48 -0.77,3.23 v 0 q 0,1.76 0.81,3.27 0.81,1.52 2.23,2.45 1.43,0.92 3.24,0.92 z M 175.08,0 h -3.83 q -1,0 -1,-1.03 v 0 q 0,-1.34 0.03,-2.67 0.04,-1.33 0.06,-2.67 v 0 q 0.05,-2.81 0.08,-5.62 0.02,-2.8 0.02,-5.61 v 0 q 0,-2.81 -0.02,-5.62 -0.03,-2.81 -0.08,-5.61 v 0 q -0.02,-1.35 -0.06,-2.68 -0.03,-1.33 -0.03,-2.67 v 0 q 0,-1.03 1,-1.03 v 0 h 3.71 q 0.58,0 0.77,0.25 0.18,0.24 0.23,0.76 v 0 q 0.05,0.31 0.02,0.68 -0.02,0.37 0,0.71 v 0 l 0.03,3.27 q 0.02,2.44 0.03,4.89 0.02,2.46 0.02,4.92 v 0 q 0,0.05 0.01,0.28 0.01,0.24 0.16,0.24 v 0 q 0.12,0 0.24,-0.13 0.12,-0.12 0.17,-0.19 v 0 q 2.96,-3.2 7.47,-3.2 v 0 q 1.93,0 3.59,0.77 1.66,0.77 2.7,2.23 1.04,1.47 1.04,3.52 v 0 q 0,3.78 0.08,7.59 0.09,3.81 0.09,7.59 v 0 q 0,1.03 -1,1.03 v 0 h -3.84 q -0.58,0 -0.76,-0.24 -0.19,-0.25 -0.24,-0.76 v 0 q -0.09,-0.83 -0.06,-2.02 0.04,-1.18 0.01,-2.06 v 0 q -0.02,-2.27 -0.02,-4.53 0,-2.26 0,-4.53 v 0 q 0,-1.73 -0.98,-2.6 -0.97,-0.86 -2.63,-0.86 v 0 q -2.05,0 -3.36,1.28 -1.31,1.28 -1.94,3.14 -0.64,1.85 -0.64,3.61 v 0 q 0,2.15 -0.02,4.28 -0.02,2.14 -0.05,4.29 v 0 q 0,1 -1,1 z m 22.46,-22.14 v 0 h 3.32 q 0.83,0 0.98,0.88 v 0 q 0.04,0.19 0.09,0.78 0.05,0.58 0.14,1.1 0.08,0.51 0.23,0.51 v 0 q 0.12,0 0.22,-0.11 0.1,-0.11 0.15,-0.19 v 0 q 1.61,-1.92 3.69,-2.74 2.09,-0.82 4.56,-0.82 v 0 q 2,0 3.89,0.73 1.89,0.74 2.8,2.69 v 0 q 0.05,0.07 0.09,0.19 0.05,0.13 0.18,0.13 v 0 q 0.09,0 0.17,-0.09 0.07,-0.09 0.12,-0.13 v 0 q 1.51,-1.66 3.51,-2.58 2.01,-0.92 4.25,-0.92 v 0 q 2.98,0 5.14,1.65 2.16,1.65 2.16,4.85 v 0 q 0,2.56 0.05,5.14 0.05,2.57 0.1,5.14 v 0 q 0.05,1.22 0.11,2.45 0.06,1.23 0.06,2.45 v 0 q 0,1.03 -1,1.03 v 0 h -3.81 q -0.54,0 -0.74,-0.24 -0.21,-0.25 -0.26,-0.74 v 0 q -0.1,-1.02 -0.07,-2.08 0.02,-1.07 -0.03,-2.09 v 0 q -0.02,-2.2 -0.06,-4.4 -0.04,-2.19 -0.04,-4.39 v 0 q 0,-1.71 -0.81,-2.67 -0.82,-0.97 -2.58,-0.97 v 0 q -2.03,0 -3.44,1.25 -1.42,1.24 -2.16,3.09 -0.75,1.84 -0.75,3.62 v 0 q 0,2.15 0.03,4.3 0.02,2.15 0.02,4.32 v 0 q 0,1 -1,1 v 0 h -3.86 q -1,0 -1,-1 v 0 q 0,-3.25 0.05,-6.47 0.05,-3.22 0,-6.47 v 0 q -0.02,-1.64 -0.82,-2.64 -0.79,-1 -2.52,-1 v 0 q -2.08,0 -3.5,1.23 -1.41,1.24 -2.14,3.09 -0.74,1.86 -0.79,3.69 v 0 q -0.02,1.49 -0.04,2.98 -0.03,1.49 -0.08,3 v 0 q 0,0.64 0.02,1.31 0.01,0.67 -0.07,1.3 v 0 q -0.04,0.49 -0.25,0.74 Q 201.64,0 201.1,0 v 0 h -3.83 q -1,0 -1,-1.05 v 0 q 0,-1.27 0.06,-2.53 0.06,-1.25 0.09,-2.52 v 0 q 0.14,-5.35 0.14,-10.67 v 0 q 0,-1 -0.05,-2.2 -0.05,-1.2 0.03,-2.17 v 0 q 0.07,-1 1,-1 z m 49.39,22.6 v 0 q -3.18,0 -5.33,-1.51 -2.14,-1.51 -3.23,-4.02 -1.09,-2.5 -1.09,-5.43 v 0 -0.39 q 0.05,-3.07 1.28,-5.78 1.24,-2.71 3.58,-4.39 2.34,-1.67 5.66,-1.67 v 0 q 2.06,0 3.83,0.77 1.77,0.77 3.3,2.09 v 0 q 0.17,0.17 0.3,0.17 v 0 q 0.29,0 0.28,-0.61 -0.01,-0.61 0.17,-1.22 0.18,-0.61 0.96,-0.61 v 0 h 3.44 q 1.01,0 1.01,1 v 0 q 0,1.05 -0.02,2.1 -0.01,1.05 -0.01,2.1 v 0 q 0,2.68 0.04,5.39 0.03,2.71 0.06,5.4 v 0 q 0.02,1.27 0.06,2.55 0.04,1.28 0.04,2.57 v 0 q 0,1.03 -1,1.03 v 0 h -3.84 q -0.66,0 -0.85,-0.43 -0.2,-0.42 -0.17,-1.01 0.02,-0.59 0,-1.05 v 0 q 0,-0.07 -0.03,-0.24 -0.02,-0.18 -0.14,-0.18 v 0 q -0.1,0 -0.19,0.08 -0.08,0.07 -0.16,0.12 v 0 q -1.7,1.44 -3.68,2.31 -1.98,0.86 -4.27,0.86 z m 2.49,-5.2 v 0 q 1.73,0 3.21,-0.72 1.47,-0.72 2.3,-2.28 v 0 q 0.05,-0.1 0.24,-0.5 0.18,-0.4 0.18,-0.5 v 0 q 0,-0.85 -0.01,-1.71 -0.02,-0.85 -0.02,-1.68 v 0 q 0,-0.39 0.03,-0.87 0.02,-0.48 -0.03,-0.84 v 0 q -0.02,-0.17 -0.18,-0.52 -0.16,-0.34 -0.23,-0.48 v 0 q -0.86,-1.54 -2.42,-2.3 -1.56,-0.76 -3.27,-0.76 v 0 q -1.81,0 -3.17,0.91 -1.37,0.9 -2.14,2.38 -0.77,1.48 -0.77,3.23 v 0 q 0,1.76 0.81,3.27 0.8,1.52 2.23,2.45 1.43,0.92 3.24,0.92 z m 17.64,-17.4 h 3.3 q 0.9,0 1,0.88 v 0 q 0.07,0.48 0.12,0.97 0.05,0.49 0.1,0.98 v 0 q 0,0.05 0.05,0.28 0.05,0.23 0.17,0.23 v 0 q 0.12,0 0.23,-0.15 0.11,-0.14 0.16,-0.22 v 0 q 1.47,-1.87 3.57,-2.71 2.1,-0.83 4.42,-0.83 v 0 q 1.9,0 3.5,0.8 1.6,0.79 2.57,2.24 0.98,1.46 0.98,3.46 v 0 q 0,3.78 0.09,7.59 0.08,3.81 0.08,7.59 v 0 q 0,1.03 -1,1.03 v 0 h -3.83 q -0.93,0 -1,-1 v 0 q -0.08,-1.05 -0.05,-2.11 0.02,-1.06 0,-2.11 v 0 q -0.03,-2.25 -0.03,-4.47 0,-2.22 0,-4.45 v 0 q 0,-1.73 -1,-2.6 -1,-0.86 -2.66,-0.86 v 0 q -2.07,0 -3.4,1.27 -1.33,1.27 -1.98,3.12 -0.65,1.86 -0.65,3.64 v 0 q 0,2.15 -0.02,4.28 -0.03,2.14 -0.05,4.29 v 0 q 0,1 -1,1 v 0 h -3.84 q -1,0 -1,-1.03 v 0 q 0,-1.36 0.04,-2.72 0.04,-1.35 0.06,-2.7 v 0 q 0.07,-5.71 0.07,-11.42 v 0 -3.27 q 0,-1 1,-1 z"
                                 opacity="1"
                                 fill="#000000"
                                 class="wordmark-text-0"
                                 data-fill-palette-color="primary"
                                 id="text-0" />
                            </svg>
                          </g>
                        </svg>
                      </g>
                    </svg>
                  </g>
                </svg>
              </g>
            </svg>
          </g>
          <defs
             id="defs36" />
        </svg>
      </g>
    </svg>
  </g>
</svg>
