<?xml version="1.0" encoding="UTF-8" standalone="no"?>
<svg
   version="1.1"
   width="540.35376"
   height="246.23676"
   viewBox="0 0 540.35376 246.23676"
   id="svg47"
   sodipodi:docname="abdelrahman-high-resolution-logo-transparent.svg"
   inkscape:export-filename="abdelrahman-high-resolution-logo-transparent2.svg"
   inkscape:export-xdpi="96"
   inkscape:export-ydpi="96"
   xmlns:inkscape="http://www.inkscape.org/namespaces/inkscape"
   xmlns:sodipodi="http://sodipodi.sourceforge.net/DTD/sodipodi-0.dtd"
   xmlns="http://www.w3.org/2000/svg"
   xmlns:svg="http://www.w3.org/2000/svg">
  <defs
     id="defs51" />
  <sodipodi:namedview
     id="namedview49"
     pagecolor="#ffffff"
     bordercolor="#000000"
     borderopacity="0.25"
     inkscape:showpageshadow="2"
     inkscape:pageopacity="0.0"
     inkscape:pagecheckerboard="0"
     inkscape:deskcolor="#d1d1d1"
     showgrid="false"
     inkscape:zoom="0.605"
     inkscape:cx="891.73554"
     inkscape:cy="123.96694"
     inkscape:window-width="1920"
     inkscape:window-height="1009"
     inkscape:window-x="-8"
     inkscape:window-y="-8"
     inkscape:window-maximized="1"
     inkscape:current-layer="svg47" />
  <g
     transform="translate(-3.128174,-0.38162448)"
     id="g45">
    <svg
       viewBox="0 0 396 49"
       data-background-color="#ffffff"
       preserveAspectRatio="xMidYMid"
       height="247"
       width="2000"
       version="1.1"
       id="svg43">
      <g
         id="tight-bounds"
         transform="translate(0.24,0.07570706)">
        <svg
           viewBox="0 0 395.52 48.848586"
           height="48.848587"
           width="395.51999"
           version="1.1"
           id="svg38">
          <g
             id="g34">
            <svg
               viewBox="0 0 558.74036 69.007071"
               height="48.848587"
               width="395.51999"
               version="1.1"
               id="svg32">
              <g
                 id="g30"
                 style="display:inline">
                <svg
                   viewBox="0 0 151.43244 69.007071"
                   height="69.007072"
                   width="151.43243"
                   version="1.1"
                   id="svg28">
                  <g
                     id="g26">
                    <svg
                       version="1.1"
                       x="0"
                       y="0"
                       viewBox="5 29.493919 90 41.012589"
                       enable-background="new 0 0 100 100"
                       xml:space="preserve"
                       height="69.007072"
                       width="151.43243"
                       class="icon-icon-0"
                       data-fill-palette-color="accent"
                       id="icon-0"><g
                         fill="#000000"
                         data-fill-palette-color="accent"
                         id="g23"><path
                           d="M 23.943,30.807 5,50.001 23.942,69.193 a 4.386,4.386 0 0 0 6.258,0.002 4.52,4.52 0 0 0 0.002,-6.338 L 18.193,50.695 14.569,52.984 30.203,37.143 a 4.5,4.5 0 0 0 1.295,-3.168 4.5,4.5 0 0 0 -1.297,-3.17 4.387,4.387 0 0 0 -6.258,0.002"
                           fill="#000000"
                           data-fill-palette-color="accent"
                           id="path17" /><path
                           d="M 76.057,30.808 95,50.001 76.058,69.193 A 4.386,4.386 0 0 1 69.8,69.195 4.52,4.52 0 0 1 69.798,62.857 L 81.807,50.696 85.431,52.985 69.796,37.144 a 4.5,4.5 0 0 1 -1.295,-3.168 4.5,4.5 0 0 1 1.297,-3.17 4.386,4.386 0 0 1 6.259,0.002"
                           fill="#000000"
                           data-fill-palette-color="accent"
                           id="path19" /><path
                           d="m 60.899,32.352 a 4.5,4.5 0 0 0 -2.366,-2.476 4.386,4.386 0 0 0 -5.825,2.288 l -13.82,32.062 a 4.5,4.5 0 0 0 -0.048,3.422 4.5,4.5 0 0 0 2.366,2.476 4.386,4.386 0 0 0 5.825,-2.288 l 13.82,-32.062 a 4.5,4.5 0 0 0 0.048,-3.422"
                           fill="#000000"
                           data-fill-palette-color="accent"
                           id="path21" /></g></svg>
                  </g>
                </svg>
              </g>
            </svg>
          </g>
          <defs
             id="defs36" />
        </svg>
      </g>
    </svg>
  </g>
</svg>
