<svg xmlns="http://www.w3.org/2000/svg" viewBox="0 0 40 40" id="Xd">
  <path d="M20.55 28.73c.08.14 0 .27-.1.27h-2.91a.4.4 0 0 1-.35-.22c-1.07-2.2-2.19-4.41-3.27-6.78-1 2.24-2.11 4.61-3.19 6.82a.31.31 0 0 1-.3.18H7.65c-.17 0-.18-.13-.1-.23l4.58-8.72-4.43-8.82a.13.13 0 0 1 .1-.23h2.85c.17 0 .23 0 .3.19C12 13.42 13.1 15.73 14.12 18c1-2.23 2.06-4.55 3.11-6.76.08-.14.13-.22.3-.22h2.67c.13 0 .18.1.1.23l-4.42 8.54ZM32 28.11c0 .1 0 .14-.13.19a10 10 0 0 1-4.28 1c-3.63 0-6.22-2.23-6.22-6.77 0-3.9 2.59-6.94 6.7-6.94a6.19 6.19 0 0 1 .87 0v-4.42a.18.18 0 0 1 .17-.17h2.64c.13 0 .17.05.17.13v15.35a12.26 12.26 0 0 0 .08 1.63Zm-3.06-9.89a2.52 2.52 0 0 0-1-.17c-2.1 0-3.57 1.62-3.57 4.31 0 3.08 1.5 4.32 3.39 4.32a3 3 0 0 0 1.15-.19Z" fill="#ffffff" class="color000000 svgShape"></path>
</svg>
